<svg xmlns="http://www.w3.org/2000/svg" width="1024" height="1024" viewBox="0 0 1024 1024" version="1.1"><path d="M 140.331 13.419 C 140.981 15.113, 149.492 58.309, 150.494 65 C 150.864 67.475, 151.564 71.075, 152.049 73 C 152.534 74.925, 155.671 90.675, 159.019 108 C 162.367 125.325, 165.965 143.550, 167.015 148.500 C 168.064 153.450, 170.119 163.800, 171.581 171.500 C 174.256 185.588, 186.073 246.188, 187.961 255.500 C 190.433 267.691, 192.120 276.444, 194.513 289.500 C 199.086 314.456, 201.115 325.320, 203.010 335 C 204.032 340.225, 206.729 354.625, 209.003 367 C 212.829 387.826, 222.591 438.768, 227.017 461 C 228.058 466.225, 230.520 479.275, 232.489 490 C 234.458 500.725, 237.671 517.150, 239.628 526.500 C 241.585 535.850, 243.769 546.899, 244.481 551.052 C 245.193 555.206, 246.495 561.956, 247.375 566.052 C 248.254 570.149, 251.030 583.625, 253.544 596 C 264.485 649.863, 265.211 652.477, 271.048 659 C 315.170 708.310, 406.536 808.165, 412.871 814 C 415.075 816.030, 444.780 847.563, 459 862.969 C 465.325 869.821, 472.309 877.244, 474.521 879.464 C 478.172 883.129, 496.273 902.485, 508.499 915.799 C 514.547 922.384, 515.426 921.431, 514.021 909.815 C 513.118 902.356, 509.745 869.162, 507.028 841 C 506.471 835.225, 505.106 819.925, 503.994 807 C 501.985 783.635, 499.429 755.053, 498.496 745.500 C 498.227 742.750, 497.544 735.325, 496.978 729 C 496.412 722.675, 495.303 710.300, 494.513 701.500 C 493.724 692.700, 491.945 672.675, 490.560 657 C 489.176 641.325, 487.821 626.475, 487.550 624 C 486.988 618.866, 484.395 590.094, 482.954 573 C 482.421 566.675, 481.346 555.650, 480.565 548.500 C 479.785 541.350, 478.874 531.450, 478.541 526.500 C 478.208 521.550, 477.303 511.200, 476.530 503.500 C 475.756 495.800, 474.618 483.425, 474 476 C 473.382 468.575, 472.253 456.200, 471.490 448.500 C 470.728 440.800, 469.385 426.400, 468.506 416.500 C 467.627 406.600, 466.254 391.525, 465.454 383 C 464.655 374.475, 463.336 358.500, 462.524 347.500 C 461.712 336.500, 460.359 319.175, 459.516 309 C 458.674 298.825, 457.292 281.275, 456.445 270 C 455.597 258.725, 454.253 242.075, 453.457 233 C 452.661 223.925, 452.008 213.264, 452.005 209.309 C 452.002 205.354, 451.579 201.858, 451.064 201.539 C 449.858 200.795, 433.845 196.106, 418.500 192.006 C 411.900 190.242, 404.700 188.194, 402.500 187.455 C 400.300 186.715, 391.975 184.282, 384 182.048 C 376.025 179.813, 365.675 176.891, 361 175.554 C 356.325 174.216, 340.072 169.641, 324.881 165.386 L 297.262 157.650 283.381 140.286 C 275.747 130.735, 267.025 119.825, 264 116.041 C 252.078 101.127, 208.638 48.002, 196.180 33.098 C 194.156 30.677, 189.570 25.052, 185.990 20.598 L 179.480 12.500 159.625 12.228 C 142.541 11.995, 139.848 12.161, 140.331 13.419 M 643.247 157.809 C 643.050 274.509, 642.747 303.975, 641.750 303.412 C 640.758 302.852, 640.754 302.981, 641.733 304.037 C 643.989 306.469, 644.008 305.095, 643.750 157.913 L 643.493 11.500 643.247 157.809 M 512.847 301.021 C 512.656 303.783, 512.804 313.121, 513.175 321.771 C 513.546 330.422, 514.332 356.850, 514.921 380.500 C 516.610 448.248, 517.245 466, 517.978 466 C 518.354 466, 520.195 463.863, 522.071 461.250 C 526.402 455.217, 542.679 435.008, 559.464 414.825 C 566.634 406.203, 578.575 391.620, 586 382.419 C 593.425 373.217, 601.222 363.667, 603.326 361.196 C 605.430 358.725, 609.527 353.732, 612.430 350.101 C 615.333 346.471, 620.016 341.025, 622.837 338 C 625.657 334.975, 627.960 332.275, 627.953 332 C 627.946 331.725, 621.992 329.581, 614.720 327.237 C 600.569 322.673, 600.151 322.547, 566 312.526 C 533.542 303.002, 520.942 299.110, 517.216 297.457 C 515.410 296.656, 513.766 296, 513.563 296 C 513.359 296, 513.037 298.260, 512.847 301.021 M 633.297 336.182 C 632.714 336.907, 631.008 339.975, 629.506 343 C 628.003 346.025, 625.311 350.975, 623.523 354 C 621.735 357.025, 618.937 361.975, 617.306 365 C 615.675 368.025, 608.864 380.468, 602.170 392.651 C 595.477 404.834, 590 415.031, 590 415.311 C 590 415.592, 588.266 418.899, 586.147 422.660 C 584.027 426.422, 580.127 433.550, 577.480 438.500 C 574.832 443.450, 568.077 455.825, 562.468 466 C 544.684 498.262, 538.968 508.943, 531.751 523.404 L 524.716 537.500 525.418 650.500 C 525.804 712.650, 526.298 764.400, 526.516 765.500 C 526.734 766.600, 527.384 804.850, 527.959 850.500 C 528.535 896.150, 529.230 944.267, 529.505 957.426 L 530.004 981.352 527.327 978.926 C 524.715 976.559, 529.029 982.799, 532.811 986.857 C 533.902 988.028, 533.718 988.703, 531.717 990.882 C 530.394 992.322, 528.074 995.300, 526.561 997.500 L 523.811 1001.500 526.655 998.034 C 528.220 996.128, 530.695 993.210, 532.155 991.549 L 534.809 988.530 549.155 991.357 C 557.045 992.911, 569.125 995.528, 576 997.171 C 591.882 1000.967, 615.275 1006.347, 629.733 1009.528 C 641.380 1012.091, 738 1013.529, 738 1011.140 C 738 1009.909, 752.412 988.435, 766.953 968 C 782.505 946.143, 797.967 924.259, 804.500 914.859 C 820.791 891.417, 827.729 883.023, 830.917 882.900 L 833.500 882.801 831.096 882.128 C 828.258 881.334, 827.501 878.980, 819.960 847.500 C 813.836 821.936, 811.688 813.065, 804.464 783.500 C 790.605 726.781, 783.046 694.674, 779.867 679.021 C 777.547 667.602, 777.832 667.921, 771 669.118 C 755.951 671.755, 712.280 680.222, 681.500 686.471 C 652.450 692.369, 648.046 693.146, 647.077 692.548 C 646.561 692.229, 645.856 692.425, 645.510 692.984 C 644.320 694.909, 643.063 693.983, 639.083 688.250 C 636.887 685.087, 632.296 678.675, 628.880 674 C 625.464 669.325, 620.352 662.125, 617.519 658 C 608.032 644.185, 585.742 612.539, 583.006 609 C 581.518 607.075, 578.728 603.250, 576.808 600.500 C 564.695 583.157, 550.036 563.421, 543.802 556.063 C 535.900 546.738, 535.046 545, 538.361 545 C 542.419 545, 583.381 549.928, 600 552.416 C 609.075 553.774, 627.525 556.483, 641 558.436 C 654.475 560.389, 668.425 562.449, 672 563.014 C 675.575 563.579, 684.575 564.929, 692 566.015 C 705.116 567.932, 708.976 568.545, 738.500 573.407 C 754.749 576.083, 753.826 576.273, 751.213 570.788 C 747.447 562.887, 710.553 488.091, 680.534 427.500 C 664.185 394.500, 647.694 361.200, 643.888 353.500 C 634.420 334.345, 634.573 334.596, 633.297 336.182 M 1006.500 599.814 C 999.129 609.250, 973.955 640.608, 961.955 655.301 C 949.696 670.311, 946.225 674.634, 939.572 683.174 C 936.861 686.653, 933.936 690.243, 933.072 691.150 C 932.207 692.058, 929.250 695.615, 926.500 699.055 C 923.750 702.495, 914.750 713.404, 906.500 723.297 C 898.250 733.190, 890.150 742.963, 888.500 745.016 C 886.850 747.068, 882.139 752.742, 878.031 757.624 C 873.923 762.506, 866.288 771.675, 861.066 778 C 843.987 798.683, 838.778 804.255, 837.866 802.817 C 837.248 801.842, 837.027 801.820, 837.015 802.733 C 837.007 803.411, 839.138 805.055, 841.750 806.386 C 845.995 808.547, 890.079 837.734, 927.312 863.032 C 938.471 870.614, 941.300 872.137, 942.040 870.959 C 943.196 869.119, 950.045 852.034, 953.850 841.500 C 959.506 825.843, 978.021 776.466, 978.974 774.500 C 979.507 773.400, 981.553 768, 983.520 762.500 C 985.488 757, 990.688 743.209, 995.077 731.854 C 999.466 720.498, 1004.348 707.448, 1005.926 702.854 C 1007.505 698.259, 1009.521 692.816, 1010.408 690.759 C 1011.827 687.464, 1011.989 681.425, 1011.760 640.216 L 1011.500 593.414 1006.500 599.814" stroke="none" fill="#4bb7b9" fill-rule="evenodd"/><path d="M 634.605 17.250 C 632.042 20.138, 590.286 62.251, 541.813 110.835 L 453.681 199.171 464.590 204.921 C 478.434 212.218, 541.133 247.072, 552 253.512 C 555.025 255.304, 565.600 261.275, 575.500 266.780 C 585.400 272.285, 603.175 282.171, 615 288.749 C 626.825 295.328, 637.962 301.462, 639.750 302.381 L 643 304.051 643 158.026 C 643 -7.747, 643.868 6.815, 634.605 17.250 M 133.717 153.310 C 129.062 156.780, 118.109 164.464, 109.377 170.385 C 100.645 176.307, 88.775 184.468, 83 188.521 C 77.225 192.574, 63.050 202.302, 51.500 210.138 C 39.950 217.974, 27.800 226.317, 24.500 228.677 C 21.200 231.037, 17.048 233.987, 15.274 235.234 L 12.048 237.500 12.334 431.500 C 12.548 576.651, 12.918 626.759, 13.804 630.500 C 14.456 633.250, 16.575 647.425, 18.514 662 C 20.452 676.575, 24.030 703.350, 26.465 721.500 C 28.899 739.650, 31.185 757.031, 31.545 760.125 L 32.199 765.751 41.350 771.257 C 56.754 780.527, 64.157 785.099, 72.500 790.490 C 76.900 793.334, 91.975 802.968, 106 811.900 C 120.025 820.831, 137.896 832.270, 145.712 837.319 C 191.627 866.978, 221.284 886.109, 240.500 898.465 C 243.250 900.233, 251.350 905.513, 258.500 910.199 C 274.874 920.928, 298.639 936.398, 327.233 954.939 C 339.480 962.880, 356.700 974.090, 365.500 979.850 C 392.775 997.701, 409.386 1008.529, 412.215 1010.300 C 414.676 1011.841, 419.600 1012, 464.834 1012 L 514.738 1012 519.820 1005.750 C 533.313 989.155, 533.999 988.146, 532.724 986.771 C 532.051 986.045, 529.939 983.437, 528.031 980.975 C 526.122 978.514, 517.091 968.850, 507.960 959.500 C 498.829 950.150, 485.765 936.650, 478.929 929.500 C 472.093 922.350, 463.984 914.025, 460.910 911 C 457.835 907.975, 447.496 897.400, 437.933 887.500 C 390.751 838.653, 330.044 776.967, 257.584 704.243 L 206.667 653.141 205.311 642.820 C 204.564 637.144, 202.861 624.175, 201.525 614 C 200.190 603.825, 198.156 588.525, 197.005 580 C 194.558 561.880, 191.397 535.701, 189.941 521.500 C 189.378 516, 188.457 508.575, 187.896 505 C 186.975 499.129, 180.429 447.149, 177.948 426 C 177.399 421.325, 175.847 408.725, 174.499 398 C 173.150 387.275, 171.116 370.850, 169.978 361.500 C 168.841 352.150, 166.826 336.625, 165.500 327 C 164.175 317.375, 161.050 292.850, 158.555 272.500 C 156.060 252.150, 153.119 228.525, 152.020 220 C 150.921 211.475, 149.100 195.725, 147.973 185 C 146.097 167.138, 143.182 147, 142.472 147 C 142.312 147, 138.372 149.839, 133.717 153.310 M 543.495 555.750 C 549.903 563.238, 564.151 582.379, 576.808 600.500 C 578.728 603.250, 581.518 607.075, 583.006 609 C 585.742 612.539, 608.032 644.185, 617.519 658 C 620.352 662.125, 625.464 669.325, 628.880 674 C 632.296 678.675, 636.887 685.087, 639.083 688.250 C 643.938 695.244, 642.487 695.457, 651.628 686.405 C 655.847 682.228, 665.245 673.565, 672.514 667.155 C 679.783 660.745, 691.304 650.354, 698.115 644.064 C 704.927 637.774, 713.142 630.201, 716.371 627.235 C 719.600 624.268, 721.850 621.495, 721.371 621.072 C 719.967 619.832, 691.559 608.032, 663.500 597.036 C 649.200 591.432, 636.082 586.206, 634.349 585.423 C 632.616 584.641, 630.924 584, 630.589 584 C 630.254 584, 622.672 581.118, 613.740 577.596 C 604.808 574.073, 588.307 567.713, 577.072 563.463 C 565.836 559.212, 552.116 553.769, 546.583 551.367 C 541.050 548.965, 536.407 547, 536.265 547 C 536.123 547, 539.377 550.938, 543.495 555.750 M 1002.910 557.771 C 998.186 562.022, 993.236 566.665, 991.910 568.089 C 990.585 569.513, 985.675 574.003, 981 578.067 C 976.325 582.130, 967.775 589.746, 962 594.991 C 956.225 600.236, 947.453 608.121, 942.506 612.513 C 927.378 625.948, 925.704 627.446, 924.023 629.050 C 921.912 631.066, 895.107 655.101, 878.500 669.870 C 871.350 676.228, 858.075 688.202, 849 696.479 C 839.925 704.756, 829.237 714.399, 825.250 717.909 C 821.263 721.419, 818 725.054, 818 725.987 C 818 729.345, 827.538 766.908, 834 789 C 835.528 794.225, 837.074 799.788, 837.436 801.362 C 838.311 805.167, 838.499 804.988, 856.808 783 C 864.822 773.375, 874.557 761.731, 878.440 757.124 C 882.323 752.517, 886.850 747.068, 888.500 745.016 C 890.150 742.963, 898.250 733.190, 906.500 723.297 C 914.750 713.404, 923.750 702.495, 926.500 699.055 C 929.250 695.615, 932.207 692.058, 933.072 691.150 C 933.936 690.243, 936.861 686.653, 939.572 683.174 C 946.225 674.634, 949.696 670.311, 961.955 655.301 C 973.527 641.132, 998.588 609.920, 1006.750 599.511 L 1012 592.816 1012 571.408 C 1012 559.634, 1011.888 550.009, 1011.750 550.021 C 1011.612 550.032, 1007.635 553.520, 1002.910 557.771 M 824.917 887.209 C 820.515 892.631, 810.873 905.689, 804.500 914.859 C 797.967 924.259, 782.505 946.143, 766.953 968 C 752.412 988.435, 738 1009.909, 738 1011.140 C 738 1012.572, 766.131 1012.127, 774.143 1010.568 C 787.596 1007.949, 798.357 1006.084, 812.810 1003.865 L 827.120 1001.668 833.310 995.241 C 843.302 984.867, 891.456 937.256, 904.500 924.855 C 911.100 918.579, 919.763 910.346, 923.750 906.559 C 932.469 898.276, 932.449 898.399, 925.250 897.563 C 922.087 897.196, 914.325 896.037, 908 894.988 C 895.444 892.905, 850.161 885.522, 840.418 883.969 C 829.870 882.288, 828.717 882.529, 824.917 887.209" stroke="none" fill="#45555b" fill-rule="evenodd"/><path d="M 135 8 C 132.489 10.511, 132.493 13.279, 135.024 25.071 C 136.137 30.257, 137.979 39.450, 139.116 45.500 C 140.253 51.550, 142.064 61, 143.139 66.500 C 144.214 72, 145.697 79.650, 146.434 83.500 C 148.344 93.468, 158.832 145.249, 160.511 153 C 163.017 164.563, 170.810 205.352, 171.496 210.500 C 171.863 213.250, 175.055 230.125, 178.590 248 C 186.049 285.724, 189.252 302.202, 192.101 317.500 C 193.228 323.550, 195 332.775, 196.039 338 C 200.844 362.157, 209.681 409.425, 215.482 442 C 216.902 449.975, 218.696 459.425, 219.469 463 C 220.242 466.575, 221.878 474.900, 223.104 481.500 C 224.331 488.100, 227.751 505.425, 230.704 520 C 233.657 534.575, 237.614 554.375, 239.496 564 C 241.378 573.625, 243.856 585.775, 245.002 591 C 249.463 611.346, 253.006 628.804, 255.553 643 C 257.841 655.755, 260.016 659.378, 274.160 674 C 280.811 680.875, 290.937 691.900, 296.663 698.500 C 302.389 705.100, 309.195 712.752, 311.787 715.505 C 314.379 718.258, 320.549 725.008, 325.499 730.505 C 337.234 743.540, 343.891 750.818, 352.482 760.006 C 356.342 764.134, 361.943 770.209, 364.929 773.506 C 373.857 783.363, 393.866 804.946, 402.007 813.500 C 406.195 817.900, 413.627 825.775, 418.523 831 C 423.419 836.225, 430.408 843.650, 434.055 847.500 C 437.703 851.350, 443.765 857.875, 447.528 862 C 451.291 866.125, 458.935 874.225, 464.515 880 C 470.095 885.775, 477.986 894.100, 482.049 898.500 C 486.112 902.900, 491.926 909.198, 494.968 912.495 C 508.672 927.345, 510.565 929, 513.848 929 C 521.837 929, 522.607 921.205, 518.550 881.458 C 517.710 873.231, 516.351 858.850, 515.531 849.500 C 514.710 840.150, 513.604 827.775, 513.072 822 C 512.541 816.225, 510.956 798.675, 509.550 783 C 505.971 743.091, 505.088 733.782, 503.908 723.500 C 503.340 718.550, 502.249 707.075, 501.483 698 C 500.717 688.925, 499.411 674.300, 498.580 665.500 C 497.749 656.700, 496.595 643.875, 496.016 637 C 495.436 630.125, 494.530 620.225, 494.001 615 C 493.473 609.775, 492.329 597.400, 491.459 587.500 C 490.589 577.600, 489.027 561.175, 487.988 551 C 486.949 540.825, 485.817 528.900, 485.472 524.500 C 485.128 520.100, 484.011 508.625, 482.992 499 C 481.972 489.375, 480.419 472.050, 479.540 460.500 C 476.365 418.757, 474.846 400.145, 473.010 380.500 C 471.983 369.500, 470.861 356.675, 470.518 352 C 469.946 344.208, 468.841 330.815, 464.496 279 C 461.509 243.365, 459 212.674, 459 211.755 C 459 211.245, 461.813 212.392, 465.250 214.305 C 468.688 216.217, 478.475 221.498, 487 226.040 C 495.525 230.583, 506.775 236.856, 512 239.982 C 525.285 247.929, 552.954 263.573, 562.500 268.534 C 566.900 270.821, 577.025 276.427, 585 280.992 C 642.100 313.675, 643.623 314.377, 648 310 C 649.982 308.018, 650 306.667, 650 159 C 650 -11.715, 651.102 6, 640.484 6 L 634.969 6 541.979 99.329 L 448.989 192.657 437.244 189.354 C 423.872 185.594, 416.904 183.550, 402 179.020 C 391.828 175.929, 379.979 172.805, 365.500 169.398 C 361.650 168.492, 355.350 166.721, 351.500 165.461 C 347.650 164.201, 337.750 161.304, 329.500 159.023 C 299.259 150.664, 304.055 153.690, 286.500 131.888 C 284.850 129.838, 279 122.649, 273.500 115.910 C 268 109.172, 260.575 99.969, 257 95.460 C 249.549 86.062, 239.913 74.198, 221.460 51.702 C 214.332 43.013, 206.925 33.938, 205 31.536 C 190.959 14.016, 185.780 7.953, 184.082 7.044 C 180.025 4.872, 137.295 5.705, 135 8 M 140.331 13.419 C 140.981 15.113, 149.492 58.309, 150.494 65 C 150.864 67.475, 151.564 71.075, 152.049 73 C 152.534 74.925, 155.671 90.675, 159.019 108 C 162.367 125.325, 165.965 143.550, 167.015 148.500 C 168.064 153.450, 170.119 163.800, 171.581 171.500 C 174.256 185.588, 186.073 246.188, 187.961 255.500 C 190.433 267.691, 192.120 276.444, 194.513 289.500 C 199.086 314.456, 201.115 325.320, 203.010 335 C 204.032 340.225, 206.729 354.625, 209.003 367 C 212.829 387.826, 222.591 438.768, 227.017 461 C 228.058 466.225, 230.520 479.275, 232.489 490 C 234.458 500.725, 237.671 517.150, 239.628 526.500 C 241.585 535.850, 243.769 546.899, 244.481 551.052 C 245.193 555.206, 246.495 561.956, 247.375 566.052 C 248.254 570.149, 251.030 583.625, 253.544 596 C 264.485 649.863, 265.211 652.477, 271.048 659 C 315.170 708.310, 406.536 808.165, 412.871 814 C 415.075 816.030, 444.780 847.563, 459 862.969 C 465.325 869.821, 472.309 877.244, 474.521 879.464 C 478.172 883.129, 496.273 902.485, 508.499 915.799 C 514.547 922.384, 515.426 921.431, 514.021 909.815 C 513.118 902.356, 509.745 869.162, 507.028 841 C 506.471 835.225, 505.106 819.925, 503.994 807 C 501.985 783.635, 499.429 755.053, 498.496 745.500 C 498.227 742.750, 497.544 735.325, 496.978 729 C 496.412 722.675, 495.303 710.300, 494.513 701.500 C 493.724 692.700, 491.945 672.675, 490.560 657 C 489.176 641.325, 487.821 626.475, 487.550 624 C 486.988 618.866, 484.395 590.094, 482.954 573 C 482.421 566.675, 481.346 555.650, 480.565 548.500 C 479.785 541.350, 478.874 531.450, 478.541 526.500 C 478.208 521.550, 477.303 511.200, 476.530 503.500 C 475.756 495.800, 474.618 483.425, 474 476 C 473.382 468.575, 472.253 456.200, 471.490 448.500 C 470.728 440.800, 469.385 426.400, 468.506 416.500 C 467.627 406.600, 466.254 391.525, 465.454 383 C 464.655 374.475, 463.336 358.500, 462.524 347.500 C 461.712 336.500, 460.359 319.175, 459.516 309 C 458.674 298.825, 457.292 281.275, 456.445 270 C 455.597 258.725, 454.253 242.075, 453.457 233 C 452.661 223.925, 452.008 213.264, 452.005 209.309 C 452.002 205.354, 451.579 201.858, 451.064 201.539 C 449.858 200.795, 433.845 196.106, 418.500 192.006 C 411.900 190.242, 404.700 188.194, 402.500 187.455 C 400.300 186.715, 391.975 184.282, 384 182.048 C 376.025 179.813, 365.675 176.891, 361 175.554 C 356.325 174.216, 340.072 169.641, 324.881 165.386 L 297.262 157.650 283.381 140.286 C 275.747 130.735, 267.025 119.825, 264 116.041 C 252.078 101.127, 208.638 48.002, 196.180 33.098 C 194.156 30.677, 189.570 25.052, 185.990 20.598 L 179.480 12.500 159.625 12.228 C 142.541 11.995, 139.848 12.161, 140.331 13.419 M 635.746 15.250 C 634.376 17.038, 595.735 56.134, 549.878 102.130 C 504.020 148.127, 463.423 188.904, 459.661 192.745 L 452.823 199.729 459.161 202.703 C 466.616 206.202, 519.121 235.359, 559.378 258.357 C 564.811 261.461, 569.433 264, 569.648 264 C 569.863 264, 571.718 265.054, 573.770 266.342 C 577.888 268.929, 577.959 268.968, 613.500 288.477 C 627.250 296.025, 639.497 302.830, 640.715 303.600 C 641.933 304.370, 643.170 305, 643.465 305 C 643.759 305, 644 239.075, 644 158.500 L 644 12 641.119 12 C 639.046 12, 637.539 12.912, 635.746 15.250 M 129.248 146.462 C 123.663 150.566, 114.235 157.234, 108.297 161.279 C 94.539 170.651, 67.704 189.155, 59.395 195 C 53.448 199.183, 31.442 214.288, 17.453 223.788 C 14.127 226.046, 10.181 229.029, 8.684 230.417 L 5.962 232.939 6.232 436.220 L 6.502 639.500 10.202 663.500 C 15.442 697.487, 24 760.092, 24 764.435 C 24 769.100, 26.094 771.206, 37.327 777.841 C 42.133 780.680, 52.463 787.194, 60.283 792.317 C 68.102 797.439, 77.744 803.626, 81.709 806.065 C 85.674 808.504, 97.824 816.203, 108.709 823.173 C 119.594 830.143, 133.675 839.103, 140 843.085 C 155.155 852.626, 174.382 865.100, 180 869.037 C 186.341 873.481, 208.301 887.745, 216.022 892.435 C 219.585 894.599, 227.450 899.585, 233.500 903.514 C 253.391 916.432, 268.420 926.190, 273.500 929.486 C 276.250 931.270, 283.225 935.752, 289 939.446 C 294.775 943.139, 300.625 946.992, 302 948.007 C 303.375 949.023, 313.418 955.624, 324.318 962.677 C 358.550 984.827, 375.219 995.733, 383.983 1001.712 C 388.648 1004.896, 394.569 1008.723, 397.141 1010.218 C 399.712 1011.712, 403.495 1014.075, 405.547 1015.468 L 409.279 1018 464.105 1018 L 518.930 1018 522.284 1015.056 C 524.128 1013.436, 528.300 1008.711, 531.555 1004.556 C 534.811 1000.400, 538.180 997, 539.042 997 C 541.198 997, 563.400 1001.907, 588 1007.820 C 599.275 1010.530, 613.675 1013.946, 620 1015.411 L 631.500 1018.074 708.500 1017.741 C 781.984 1017.423, 785.934 1017.313, 795 1015.336 C 800.225 1014.196, 809.675 1012.485, 816 1011.532 C 832.057 1009.115, 832.638 1008.848, 840 1000.489 C 843.575 996.430, 851.675 988.037, 858 981.839 C 864.325 975.641, 877.150 962.840, 886.500 953.392 C 895.850 943.945, 908.225 931.991, 914 926.829 C 931.648 911.054, 939 902.738, 939 898.552 C 939 895.286, 936.315 891.013, 934.250 890.992 C 932.899 890.979, 920.716 889.009, 909.500 886.991 C 895.428 884.459, 864.104 879.626, 848.012 877.504 C 833.778 875.627, 835.090 876.156, 833.940 871.829 C 829.493 855.107, 825.533 839.353, 821.539 822.500 C 818.933 811.500, 816.205 800.475, 815.476 798 C 814.748 795.525, 813.465 790.350, 812.626 786.500 C 811.787 782.650, 807.867 766, 803.915 749.500 C 799.963 733, 795.940 716.125, 794.975 712 C 790.505 692.892, 788.671 684.860, 786.928 676.747 C 782.973 658.333, 785.228 658.905, 746.500 666.503 C 734.400 668.877, 721.800 671.130, 718.500 671.510 C 715.200 671.889, 710.475 672.636, 708 673.170 C 668.582 681.666, 668.074 681.713, 674.118 676.328 C 676.480 674.222, 680.908 670.276, 683.957 667.558 C 695.637 657.144, 720.683 634.318, 724.747 630.382 C 729.255 626.017, 730.347 621.385, 727.933 616.874 C 726.169 613.579, 696.199 600.346, 665.669 589.383 C 661.913 588.034, 649.763 583.295, 638.669 578.852 C 614.883 569.325, 612.590 568.426, 599.500 563.498 C 587.485 558.975, 586.865 558.515, 594 559.409 C 597.025 559.787, 603.550 560.509, 608.500 561.011 C 613.450 561.514, 620.200 562.363, 623.500 562.897 C 626.800 563.432, 638.725 565.261, 650 566.962 C 661.275 568.663, 675.900 570.944, 682.500 572.030 C 689.100 573.117, 697.875 574.436, 702 574.962 C 706.125 575.488, 718.895 577.512, 730.378 579.459 C 754.654 583.576, 756.333 583.667, 759 581 C 763.408 576.592, 766.185 582.830, 704.904 459.500 C 693.973 437.500, 674.992 399.250, 662.725 374.500 C 641.024 330.717, 640.310 329.442, 636.335 327.354 C 632.016 325.087, 614.550 319.003, 599.500 314.524 C 594.550 313.050, 589.375 311.476, 588 311.025 C 586.625 310.574, 582.800 309.435, 579.500 308.493 C 576.200 307.551, 567.875 305.085, 561 303.013 C 554.125 300.941, 545.575 298.487, 542 297.559 C 538.425 296.632, 531.450 294.514, 526.500 292.852 C 513.302 288.423, 510.682 288.228, 507.475 291.434 L 504.841 294.068 505.391 312.847 C 505.694 323.176, 506.413 349.148, 506.988 370.563 C 509.791 474.779, 509.570 472.101, 515.513 473.593 C 520.292 474.792, 522.771 473.183, 529.159 464.740 C 535.160 456.808, 554.037 433.350, 560.416 425.897 C 564.117 421.574, 574.365 409.048, 588.271 391.851 C 593.897 384.894, 599.768 377.694, 601.318 375.851 L 604.137 372.500 601.207 378 C 599.595 381.025, 594.087 391.600, 588.966 401.500 C 583.846 411.400, 577.723 422.708, 575.359 426.629 C 571.500 433.032, 556.715 460.078, 547.004 478.500 C 544.974 482.350, 540.020 491.575, 535.993 499 C 522.714 523.486, 518.327 532.555, 517.620 536.974 C 516.795 542.133, 518.591 744.986, 519.998 805.500 C 520.535 828.600, 521.272 873.375, 521.637 905 L 522.300 962.500 509.400 949.019 C 502.305 941.605, 491.550 930.542, 485.500 924.435 C 479.450 918.328, 464.150 902.618, 451.500 889.523 C 438.850 876.429, 420.175 857.279, 410 846.969 C 399.825 836.658, 380.250 816.709, 366.500 802.638 C 352.750 788.566, 337.232 772.879, 332.015 767.777 C 326.799 762.674, 317.799 753.553, 312.015 747.508 C 306.232 741.462, 283.694 718.737, 261.931 697.008 C 208.794 643.953, 214.403 650.826, 212.491 636.429 C 209.899 616.903, 207.089 596.002, 205.981 588 C 204.325 576.031, 200.234 544.649, 198.486 530.500 C 197.603 523.350, 196.042 511.200, 195.018 503.500 C 193.269 490.353, 191.265 473.432, 182.463 397.500 C 180.487 380.450, 178.470 363.800, 177.981 360.500 C 177.492 357.200, 176.385 349.100, 175.522 342.500 C 174.658 335.900, 173.062 323.975, 171.975 316 C 170.047 301.850, 164.239 256.005, 161.461 233 C 160.698 226.675, 159.609 218.125, 159.042 214 C 157.927 205.883, 154.501 177.215, 153.485 167.500 C 150.229 136.356, 146.915 133.480, 129.248 146.462 M 134.336 152.064 C 125.393 158.688, 83.567 187.607, 35.788 220.200 C 29.580 224.435, 21.685 229.955, 18.245 232.465 L 11.990 237.030 12.291 432.265 C 12.560 607.499, 12.760 628.627, 14.239 638.500 C 20.714 681.709, 31 757.389, 31 761.815 C 31 764.563, 31.580 765.890, 33.250 766.957 C 34.488 767.748, 42.475 772.633, 51 777.814 C 59.525 782.995, 68.750 788.696, 71.500 790.483 C 74.250 792.270, 81.675 797.015, 88 801.027 C 94.325 805.038, 108.950 814.390, 120.500 821.809 C 132.050 829.227, 143.335 836.468, 145.579 837.898 C 151.204 841.486, 174.228 856.376, 204.494 876 C 218.490 885.075, 234.117 895.167, 239.221 898.426 C 250.088 905.366, 260.952 912.419, 285 928.144 C 294.625 934.437, 311.050 945.115, 321.500 951.871 C 331.950 958.627, 346.438 968.057, 353.695 972.827 C 360.952 977.597, 377.370 988.363, 390.181 996.750 L 413.472 1012 464.491 1012 L 515.511 1012 522.505 1003.341 C 526.352 998.579, 530.695 993.298, 532.155 991.606 L 534.809 988.530 549.155 991.357 C 557.045 992.911, 569.125 995.528, 576 997.171 C 591.882 1000.967, 615.275 1006.347, 629.733 1009.528 L 640.966 1012 705.733 1011.980 C 756.156 1011.965, 772.161 1011.657, 778 1010.592 C 793.661 1007.734, 803.884 1005.957, 815.282 1004.113 L 827.065 1002.207 862.782 966.689 C 882.427 947.154, 902.994 926.970, 908.488 921.836 C 927.171 904.372, 932.466 899.133, 931.954 898.621 C 931.673 898.339, 928.305 897.633, 924.471 897.050 C 920.637 896.468, 912.325 895.090, 906 893.988 C 890.552 891.297, 854.087 885.448, 840.533 883.486 C 826.743 881.491, 829.083 885.584, 819.960 847.500 C 813.836 821.936, 811.688 813.065, 804.464 783.500 C 790.605 726.781, 783.046 694.674, 779.867 679.021 C 778.808 673.807, 777.617 669.229, 777.221 668.848 C 776.309 667.971, 767.526 669.495, 721.500 678.521 C 709.400 680.894, 698.375 683.038, 697 683.287 C 695.625 683.535, 684.246 685.822, 671.713 688.369 C 646.682 693.456, 647 693.409, 647 692.045 C 647 691.520, 655.866 683.083, 666.701 673.295 C 685.689 656.145, 708.336 635.420, 718.268 626.106 C 720.890 623.647, 722.690 621.320, 722.268 620.934 C 720.852 619.641, 698.689 610.242, 677.758 602.059 C 666.349 597.599, 654.424 592.858, 651.258 591.523 C 644.994 588.884, 618.662 578.707, 582.500 564.950 C 545.328 550.808, 532.393 545, 538.073 545 C 542.368 545, 582.816 549.844, 600 552.416 C 609.075 553.774, 627.525 556.483, 641 558.436 C 654.475 560.389, 668.425 562.449, 672 563.014 C 675.575 563.579, 684.575 564.929, 692 566.015 C 705.116 567.932, 708.976 568.545, 738.500 573.407 C 754.749 576.083, 753.826 576.273, 751.213 570.788 C 746.069 559.996, 704.049 474.911, 643.045 351.767 C 638.486 342.563, 634.350 335.283, 633.855 335.589 C 633.360 335.895, 631.565 338.925, 629.866 342.323 C 628.167 345.720, 625.314 350.975, 623.524 354 C 621.735 357.025, 618.937 361.975, 617.306 365 C 615.675 368.025, 608.864 380.468, 602.170 392.651 C 595.477 404.834, 590 415.031, 590 415.311 C 590 415.592, 588.266 418.899, 586.147 422.660 C 584.027 426.422, 580.127 433.550, 577.480 438.500 C 574.832 443.450, 568.077 455.825, 562.468 466 C 544.684 498.262, 538.968 508.943, 531.751 523.404 L 524.716 537.500 525.418 650.500 C 525.804 712.650, 526.298 764.400, 526.516 765.500 C 526.734 766.600, 527.384 804.850, 527.959 850.500 C 528.535 896.150, 529.225 944.300, 529.493 957.500 L 529.980 981.500 521.860 973 C 513.491 964.240, 497.551 947.810, 467.042 916.496 C 457.394 906.594, 435.325 883.908, 418 866.082 C 362.192 808.660, 325.884 771.794, 255.908 701.500 L 207.129 652.500 205.577 640 C 204.723 633.125, 203.142 620.975, 202.062 613 C 197.532 579.528, 195.791 566.025, 192.519 539 C 187.193 494.998, 182.200 454.962, 180.049 439 C 178.975 431.025, 177.811 421.350, 177.464 417.500 C 176.766 409.765, 167.773 338.308, 165.507 322.500 C 164.719 317, 161.814 294.050, 159.052 271.500 C 156.290 248.950, 153.567 227.125, 153.001 223 C 152.435 218.875, 151.062 207.400, 149.950 197.500 C 146.552 167.251, 145.997 162.720, 144.928 156.500 C 142.959 145.047, 143.501 145.275, 134.336 152.064 M 512.847 301.021 C 512.656 303.783, 512.804 313.121, 513.175 321.771 C 513.546 330.422, 514.332 356.850, 514.921 380.500 C 516.610 448.248, 517.245 466, 517.978 466 C 518.354 466, 520.195 463.863, 522.071 461.250 C 526.402 455.217, 542.679 435.008, 559.464 414.825 C 566.634 406.203, 578.575 391.620, 586 382.419 C 593.425 373.217, 601.222 363.667, 603.326 361.196 C 605.430 358.725, 609.527 353.732, 612.430 350.101 C 615.333 346.471, 620.016 341.025, 622.837 338 C 625.657 334.975, 627.960 332.275, 627.953 332 C 627.946 331.725, 621.992 329.581, 614.720 327.237 C 600.569 322.673, 600.151 322.547, 566 312.526 C 533.542 303.002, 520.942 299.110, 517.216 297.457 C 515.410 296.656, 513.766 296, 513.563 296 C 513.359 296, 513.037 298.260, 512.847 301.021 M 1001.721 547.750 C 994.647 553.979, 978.020 569.230, 966.018 580.500 C 960.747 585.450, 952.173 593.093, 946.967 597.484 C 941.760 601.876, 931.200 611.389, 923.500 618.626 C 915.800 625.862, 906.819 633.969, 903.542 636.641 C 900.265 639.313, 893.501 645.429, 888.511 650.232 C 883.521 655.034, 878.100 659.984, 876.464 661.232 C 874.828 662.479, 872.142 664.798, 870.495 666.384 C 868.848 667.969, 864.515 671.852, 860.867 675.011 C 855.004 680.087, 851.504 683.264, 841.044 693 C 839.566 694.375, 834.586 698.875, 829.977 703 C 806.330 724.162, 807.634 719.580, 815.986 752.154 C 829.506 804.880, 831.118 809.460, 837.259 812.632 C 840.170 814.135, 853 822.492, 893.500 849.263 C 908.513 859.188, 927.531 872.146, 933.900 876.791 C 943.512 883.801, 946.276 881.767, 953.999 862 C 957.329 853.475, 960.976 844.250, 962.103 841.500 C 963.230 838.750, 965.404 833.125, 966.934 829 C 968.465 824.875, 971.580 816.494, 973.858 810.375 C 976.136 804.256, 978 798.728, 978 798.090 C 978 797.453, 980.066 791.659, 982.592 785.216 C 985.117 778.772, 988.743 769.450, 990.649 764.500 C 992.555 759.550, 994.729 753.925, 995.481 752 C 998.328 744.703, 1012.943 706.199, 1015.416 699.479 L 1018 692.458 1018 619.729 C 1018 548.333, 1017.963 546.963, 1016 545 C 1012.457 541.457, 1007.864 542.342, 1001.721 547.750 M 1003.500 556.646 C 999.100 560.728, 990.101 568.890, 983.503 574.784 C 976.905 580.678, 970.795 586.175, 969.927 587 C 965.740 590.979, 958.671 597.367, 950.430 604.623 C 942.364 611.724, 916.060 635.275, 892 656.936 C 887.325 661.145, 879 668.570, 873.500 673.436 C 868 678.301, 862.825 683.006, 862 683.892 C 861.175 684.777, 856.225 689.298, 851 693.938 C 845.775 698.579, 837 706.524, 831.500 711.594 C 826 716.665, 820.481 721.643, 819.235 722.657 C 816.332 725.020, 818.380 734.964, 831.741 783.359 L 837.500 804.218 842 806.512 C 846.038 808.570, 890.879 838.278, 927.312 863.032 C 938.471 870.614, 941.300 872.137, 942.040 870.959 C 943.196 869.119, 950.045 852.034, 953.850 841.500 C 959.506 825.843, 978.021 776.466, 978.974 774.500 C 979.507 773.400, 981.553 768, 983.520 762.500 C 985.488 757, 990.688 743.209, 995.077 731.854 C 999.466 720.498, 1004.348 707.448, 1005.926 702.854 C 1007.505 698.259, 1009.520 692.820, 1010.405 690.766 C 1011.840 687.434, 1011.986 679.601, 1011.757 618.128 L 1011.500 549.225 1003.500 556.646" stroke="none" fill="#ffffff" fill-rule="evenodd"/></svg>